<svg width="168" height="67" viewBox="0 0 168 67" fill="none" xmlns="http://www.w3.org/2000/svg">
<path d="M7.392 44.744H18.128V48H3.388V17.332H7.392V44.744ZM36.2842 48.308C33.4389 48.308 30.8429 47.648 28.4962 46.328C26.1495 44.9787 24.2869 43.116 22.9082 40.74C21.5589 38.3347 20.8842 35.636 20.8842 32.644C20.8842 29.652 21.5589 26.968 22.9082 24.592C24.2869 22.1867 26.1495 20.324 28.4962 19.004C30.8429 17.6547 33.4389 16.98 36.2842 16.98C39.1589 16.98 41.7695 17.6547 44.1162 19.004C46.4629 20.324 48.3109 22.172 49.6602 24.548C51.0095 26.924 51.6842 29.6227 51.6842 32.644C51.6842 35.6653 51.0095 38.364 49.6602 40.74C48.3109 43.116 46.4629 44.9787 44.1162 46.328C41.7695 47.648 39.1589 48.308 36.2842 48.308ZM36.2842 44.832C38.4255 44.832 40.3469 44.3333 42.0482 43.336C43.7789 42.3387 45.1282 40.916 46.0962 39.068C47.0935 37.22 47.5922 35.0787 47.5922 32.644C47.5922 30.18 47.0935 28.0387 46.0962 26.22C45.1282 24.372 43.7935 22.9493 42.0922 21.952C40.3909 20.9547 38.4549 20.456 36.2842 20.456C34.1135 20.456 32.1775 20.9547 30.4762 21.952C28.7749 22.9493 27.4255 24.372 26.4282 26.22C25.4602 28.0387 24.9762 30.18 24.9762 32.644C24.9762 35.0787 25.4602 37.22 26.4282 39.068C27.4255 40.916 28.7749 42.3387 30.4762 43.336C32.2069 44.3333 34.1429 44.832 36.2842 44.832ZM80.202 26.22C79.3514 24.4307 78.1194 23.052 76.506 22.084C74.8927 21.0867 73.0154 20.588 70.874 20.588C68.7327 20.588 66.7967 21.0867 65.066 22.084C63.3647 23.052 62.0154 24.46 61.018 26.308C60.05 28.1267 59.566 30.2387 59.566 32.644C59.566 35.0493 60.05 37.1613 61.018 38.98C62.0154 40.7987 63.3647 42.2067 65.066 43.204C66.7967 44.172 68.7327 44.656 70.874 44.656C73.866 44.656 76.33 43.7613 78.266 41.972C80.202 40.1827 81.3314 37.7627 81.654 34.712H69.422V31.456H85.922V34.536C85.6874 37.0587 84.8954 39.376 83.546 41.488C82.1967 43.5707 80.422 45.228 78.222 46.46C76.022 47.6627 73.5727 48.264 70.874 48.264C68.0287 48.264 65.4327 47.604 63.086 46.284C60.7394 44.9347 58.8767 43.072 57.498 40.696C56.1487 38.32 55.474 35.636 55.474 32.644C55.474 29.652 56.1487 26.968 57.498 24.592C58.8767 22.1867 60.7394 20.324 63.086 19.004C65.4327 17.6547 68.0287 16.98 70.874 16.98C74.13 16.98 77.0047 17.7867 79.498 19.4C82.0207 21.0133 83.854 23.2867 84.998 26.22H80.202ZM105.12 48.308C102.275 48.308 99.6788 47.648 97.3321 46.328C94.9855 44.9787 93.1228 43.116 91.7441 40.74C90.3948 38.3347 89.7201 35.636 89.7201 32.644C89.7201 29.652 90.3948 26.968 91.7441 24.592C93.1228 22.1867 94.9855 20.324 97.3321 19.004C99.6788 17.6547 102.275 16.98 105.12 16.98C107.995 16.98 110.605 17.6547 112.952 19.004C115.299 20.324 117.147 22.172 118.496 24.548C119.845 26.924 120.52 29.6227 120.52 32.644C120.52 35.6653 119.845 38.364 118.496 40.74C117.147 43.116 115.299 44.9787 112.952 46.328C110.605 47.648 107.995 48.308 105.12 48.308ZM105.12 44.832C107.261 44.832 109.183 44.3333 110.884 43.336C112.615 42.3387 113.964 40.916 114.932 39.068C115.929 37.22 116.428 35.0787 116.428 32.644C116.428 30.18 115.929 28.0387 114.932 26.22C113.964 24.372 112.629 22.9493 110.928 21.952C109.227 20.9547 107.291 20.456 105.12 20.456C102.949 20.456 101.013 20.9547 99.3121 21.952C97.6108 22.9493 96.2615 24.372 95.2641 26.22C94.2961 28.0387 93.8121 30.18 93.8121 32.644C93.8121 35.0787 94.2961 37.22 95.2641 39.068C96.2615 40.916 97.6108 42.3387 99.3121 43.336C101.043 44.3333 102.979 44.832 105.12 44.832Z" fill="black"/>
<ellipse cx="151" cy="33.5" rx="17" ry="17.5" fill="white"/>
</svg>
